PathFileType	4	(X/Y/Z)	E:\Qualisys_Data\Carbon_Farble_Plate\Data\Amateur_Runner\S2\T3\S2T3V21_c3d.trc
DataRate	CameraRate	NumFrames	NumMarkers	Units	OrigDataRate	OrigDataStartFrame	OrigNumFrames
200.000000	200.000000	4	39	mm	200.000000	37	301
Frame#	Time	LSHO			RSHO			LICST			RICST			LASIS			LHEEL			RASIS			LTROC			RTROC			SACR			LTH1			LSK4			LTH2			LTH3			RHM5			LSK2			LTH4			RTH1			LTOE			RTH2			RTH3			RTH4			LLEP			RLEP			LSK1			LSK3			RSK1			LHM5			RSK2			LFT1			RSK3			RSK4			LLME			RLME			RTOE			RHEEL			RFT1			RFT2			LFT2			
		X1	Y1	Z1	X2	Y2	Z2	X3	Y3	Z3	X4	Y4	Z4	X5	Y5	Z5	X6	Y6	Z6	X7	Y7	Z7	X8	Y8	Z8	X9	Y9	Z9	X10	Y10	Z10	X11	Y11	Z11	X12	Y12	Z12	X13	Y13	Z13	X14	Y14	Z14	X15	Y15	Z15	X16	Y16	Z16	X17	Y17	Z17	X18	Y18	Z18	X19	Y19	Z19	X20	Y20	Z20	X21	Y21	Z21	X22	Y22	Z22	X23	Y23	Z23	X24	Y24	Z24	X25	Y25	Z25	X26	Y26	Z26	X27	Y27	Z27	X28	Y28	Z28	X29	Y29	Z29	X30	Y30	Z30	X31	Y31	Z31	X32	Y32	Z32	X33	Y33	Z33	X34	Y34	Z34	X35	Y35	Z35	X36	Y36	Z36	X37	Y37	Z37	X38	Y38	Z38	X39	Y39	Z39	

38	0.185	-2061.681396484375	1428.945678710938	-465.6165161132812	-2049.526611328125	1389.500854492188	-147.0518188476562	-2143.53076171875	961.9839477539062	-471.9605102539062	-2141.395263671875	949.939208984375	-166.7038269042969	-2084.239013671875	914.0377197265624	-454.7080993652344	-2405.846923828125	461.8411865234375	-363.5552978515625	-2076.99462890625	908.5889282226562	-190.9483489990234	-2209.540771484375	833.2325439453125	-466.3680725097656	-2224.6005859375	851.0809936523438	-168.9567413330078	-2228.4228515625	1002.819580078125	-319.5331115722656	-2004.276611328125	629.5677490234375	-493.2448120117188	-2224.5830078125	473.7914428710938	-456.6147155761719	-2083.550537109375	603.7835083007812	-495.7679138183594	-1974.023071289062	532.0593872070312	-478.4212341308594	-2235.6259765625	79.77949523925781	-211.327880859375	-2128.844970703125	489.5274658203125	-478.62451171875	-2056.241943359375	508.1044921875	-474.1776428222656	-2075.41162109375	584.636962890625	-171.4703063964844	-2374.996826171875	217.4064636230469	-407.9147644042969	-2153.323974609375	583.8184814453125	-171.3401031494141	-2075.119384765625	486.9644775390625	-200.2008972167969	-2154.826416015625	489.14453125	-195.2977600097656	-2009.787475585938	476.837646484375	-479.8194580078125	-2121.5341796875	454.7885131835938	-193.52099609375	-2115.263671875	411.8764038085938	-470.6795959472656	-2212.984619140625	396.1158142089844	-455.1893310546875	-2141.084716796875	330.33544921875	-202.8430938720703	-2412.966552734375	279.416015625	-459.2220458984375	-2207.9404296875	373.1170654296875	-185.2820129394531	-2430.90478515625	445.8296508789062	-336.1925354003906	-2200.3046875	246.7732696533203	-219.9508056640625	-2262.845703125	291.3345031738281	-202.2659912109375	-2386.5888671875	408.5976257324219	-421.845947265625	-2338.04248046875	126.2061996459961	-242.6822052001953	-2169.178466796875	74.93220520019531	-266.5997314453125	-2411.003173828125	116.990966796875	-303.0675659179688	-2402.120849609375	84.75631713867188	-326.2960205078125	-2418.094970703125	94.32302856445312	-278.2079162597656	-2437.779541015625	454.23095703125	-384.1648559570312
39	0.19	-2045.08740234375	1432.990234375	-466.0150146484375	-2028.99169921875	1393.481567382812	-148.9134826660156	-2123.486328125	965.1146240234376	-471.1690673828125	-2117.7900390625	952.6748046875	-165.6586456298828	-2064.63232421875	917.6219482421876	-454.47509765625	-2379.82275390625	453.3764038085938	-364.4017639160156	-2055.820556640625	910.3330078125	-190.7536926269531	-2189.519775390625	836.8168334960938	-467.5083923339844	-2204.208251953125	853.6293334960938	-168.6422424316406	-2208.24609375	1005.729797363281	-318.0420837402344	-1980.458618164062	636.5506591796875	-492.5845947265625	-2197.637451171875	472.4776000976562	-456.9468688964844	-2059.00634765625	609.0505981445312	-495.39208984375	-1947.308349609375	539.3532104492188	-476.6966857910156	-2234.93798828125	80.089111328125	-211.43017578125	-2101.726318359375	491.3417358398438	-478.1748352050781	-2028.892456054688	514.3401489257812	-473.5794067382812	-2064.58056640625	585.3262939453125	-171.3906097412109	-2336.103515625	210.4591827392578	-408.08056640625	-2141.440673828125	586.2875366210938	-171.7702026367188	-2065.29248046875	487.5531311035156	-200.5465240478516	-2145.449951171875	491.6798095703125	-195.4728851318359	-1984.029296875	484.8729553222656	-479.9945983886719	-2114.56787109375	456.2504272460938	-193.5102081298828	-2086.056640625	414.4306640625	-469.47314453125	-2182.697021484375	394.8550109863281	-454.6816711425781	-2137.23779296875	331.7076110839844	-202.7957611083984	-2375.7958984375	270.0743713378906	-459.2057800292969	-2202.8564453125	376.094482421875	-185.7229614257812	-2402.08203125	434.9650268554688	-334.7799682617188	-2196.47705078125	249.5840454101562	-219.7188110351562	-2259.250244140625	294.6667175292969	-201.9163360595703	-2358.7529296875	401.2735595703125	-424.0005187988281	-2336.579345703125	130.0545043945312	-243.0621185302734	-2169.074462890625	74.7178726196289	-266.8081970214844	-2410.32666015625	121.3840713500977	-303.0802307128906	-2401.13330078125	87.82701873779297	-325.8397216796875	-2416.32568359375	98.79139709472656	-278.2754211425781	-2411.656982421875	445.2934875488281	-386.20068359375
40	0.195	-2029.211303710938	1436.77783203125	-466.6128234863281	-2006.612182617188	1397.4921875	-149.6021423339844	-2103.965576171875	969.5197143554688	-470.9747924804688	-2096.439208984375	956.2857055664062	-165.7239532470703	-2045.033935546875	921.904541015625	-454.2239685058594	-2354.093994140625	444.2073669433594	-365.2286071777344	-2034.605834960938	912.7974853515624	-191.0191192626953	-2169.452392578125	841.4183349609375	-468.3716430664062	-2183.891845703125	856.7503662109375	-168.3611145019531	-2187.67333984375	1008.869506835938	-317.0441284179688	-1956.467407226562	644.2814331054688	-491.9057922363281	-2170.74755859375	470.6418762207031	-457.2257080078125	-2034.773315429688	615.4963989257812	-495.2235412597656	-1920.743408203125	548.7885131835938	-474.6012573242188	-2234.4951171875	80.5433120727539	-211.3014373779297	-2075.80712890625	493.4452209472656	-478.4974975585938	-2002.078369140625	520.8539428710938	-473.4363403320312	-2053.029052734375	585.8248901367188	-171.2816772460938	-2296.207275390625	203.6765747070312	-408.025634765625	-2129.937744140625	589.6106567382812	-172.1485290527344	-2056.404052734375	488.4922485351562	-199.8021240234375	-2137.051513671875	494.9796447753906	-195.7523651123047	-1956.014282226562	491.3953247070312	-477.8778686523438	-2106.980712890625	457.8589477539062	-193.6145629882812	-2057.063232421875	417.0117797851562	-469.8040161132812	-2153.510986328125	394.4493408203125	-454.5290222167969	-2131.686767578125	334.7373962402344	-202.4943542480469	-2338.51611328125	261.4617919921875	-459.248046875	-2197.282958984375	379.2982482910156	-185.6844329833984	-2374.418701171875	423.8175354003906	-334.9061889648438	-2191.165771484375	252.6408081054688	-218.9321441650391	-2254.256591796875	298.9098815917969	-201.8788452148438	-2329.20166015625	392.58544921875	-424.5391235351562	-2333.91748046875	134.5960235595703	-241.9473114013672	-2168.517822265625	73.76585388183594	-266.2911987304688	-2407.533935546875	127.7328262329102	-302.1990661621094	-2399.41015625	94.10403442382812	-325.332763671875	-2414.2802734375	104.7973403930664	-277.3866882324219	-2385.453857421875	434.0870056152344	-386.6268310546875
41	0.2	-2013.194580078125	1440.955688476562	-467.2315063476562	-1984.83154296875	1401.710083007812	-151.1859741210938	-2083.91845703125	973.6514892578124	-470.8352355957031	-2073.808837890625	959.4332275390624	-165.7461547851562	-2025.184936523438	926.4014282226562	-454.2008972167969	-2327.91357421875	434.1769409179688	-365.6294860839844	-2014.18017578125	915.5238647460938	-192.1242980957031	-2148.320068359375	846.090087890625	-469.3493347167969	-2163.001708984375	860.08154296875	-168.0995178222656	-2166.90185546875	1012.3251953125	-315.6375122070312	-1932.623901367188	652.077880859375	-490.8321533203125	-2143.986328125	469.4248352050781	-457.7492980957031	-2010.70068359375	621.5390014648438	-494.6040344238281	-1895.286010742188	557.6845092773438	-473.7799072265625	-2232.77783203125	80.99877166748047	-210.8234710693359	-2049.4716796875	494.8942260742188	-477.7291870117188	-1976.13232421875	528.111083984375	-473.50341796875	-2041.661987304688	588.1199340820312	-171.0050964355469	-2257.746337890625	196.8936309814453	-408.3655395507812	-2118.30908203125	593.456787109375	-172.3810119628906	-2048.42578125	490.14404296875	-199.3565368652344	-2128.610107421875	498.2413940429688	-193.9274139404297	-1929.583984375	499.1986999511719	-477.1400756835938	-2100.463134765625	461.1654052734375	-193.1326141357422	-2027.59814453125	419.5531005859375	-468.2694702148438	-2123.193115234375	393.3174133300781	-454.2060852050781	-2125.80029296875	337.7603454589844	-201.9191741943359	-2300.611328125	253.8765411376953	-457.9810791015625	-2191.439453125	383.73681640625	-185.3580627441406	-2347.7900390625	415.3118591308594	-339.2752075195312	-2187.017578125	256.6721801757812	-218.67578125	-2249.574951171875	303.5564880371094	-202.4685516357422	-2299.66162109375	383.4830932617188	-424.6929931640625	-2330.287353515625	139.5489501953125	-241.6945648193359	-2163.31640625	74.5483627319336	-265.6743774414062	-2403.863037109375	134.5289459228516	-301.178466796875	-2397.02880859375	101.7564544677734	-325.2640686035156	-2411.6962890625	111.316291809082	-276.7395629882812	-2358.675048828125	422.5862731933594	-387.5382080078125
